<svg xmlns="http://www.w3.org/2000/svg"  viewBox="0 0 48 48" width="48px" height="48px"><path fill="#ef4823" d="M3.746,21.482c-0.078,1.981-0.24,3.956-0.108,5.934c0.233,3.475,0.834,7.105,3.037,9.866 c1.203,1.508,2.812,2.66,4.416,3.768c2.024,1.397,4.156,2.787,6.602,3.238c1.242,0.229,2.52,0.205,3.782,0.131 c4.225-0.248,8.467-1.07,12.241-2.915c3.775-1.845,7.063-4.777,8.785-8.502c1.018-2.203,1.469-4.622,1.546-7.032 c0.25-7.81-3.835-15.873-10.96-19.607c-0.819-0.429-1.674-0.803-2.572-1.048c-1.214-0.332-2.483-0.426-3.742-0.518 c-2.404-0.175-4.84-0.349-7.21,0.078S4.222,9.316,3.746,21.482z"/><path fill="#38b47b" d="M6.938,12.728c0.726,3.424,2.526,6.829,4.381,9.72c1.625,2.531,2.994,4.911,4.981,7.106 c0,0,6.251,8.113,14.939,0c-2.003,4.541-4.901,11.736-8.452,14.749c-3.64,0.692-11.172-0.328-17.008-8.336 C2.192,31.045,3.254,16.442,6.938,12.728z"/><path fill="#febf10" d="M23,44.471c0,0,8.559-11.653,9.517-19.742c0.395-3.332-1.988-8.659-8.517-9.15 c10.016-0.087,18.088,0.079,18.088,0.079s4.588,9.886,0,17.916S30.368,43.809,23,44.471z"/><path fill="#010101" d="M36.721,8.195c-1.768-1.465-3.842-2.756-6.072-3.364c-1.339-0.365-2.737-0.453-4.115-0.553 c-1.444-0.104-2.892-0.202-4.341-0.161c-2.381,0.067-4.509,0.632-6.684,1.554C9.885,8.055,4.869,12.479,3.587,18.679 c-0.191,0.923-0.299,1.862-0.34,2.804c-0.205,5.03-0.493,10.687,2.339,15.129c1.351,2.118,3.393,3.592,5.433,4.993 c2.133,1.465,4.401,2.871,7.01,3.24c2.571,0.364,5.321,0.008,7.868-0.411c2.643-0.436,5.236-1.172,7.667-2.303 c4.13-1.921,7.818-5.153,9.605-9.411C46.655,24.415,43.549,13.852,36.721,8.195z M36.188,39.489 c-4.084,2.797-9.039,4.005-13.92,4.376c-1.284,0.098-2.59,0.176-3.872,0.026c-1.304-0.153-2.552-0.602-3.715-1.199 c-2.116-1.085-4.21-2.521-6.007-4.077c-1.814-1.571-3.026-3.533-3.691-5.834c-0.67-2.322-0.911-4.807-0.893-7.218 c0.01-1.361,0.101-2.721,0.157-4.08c0.148-3.359,1.351-6.554,3.524-9.128c1.769-2.096,4.017-3.732,6.447-4.981 c1.618-0.831,3.348-1.539,5.127-1.944c2.025-0.461,4.17-0.353,6.226-0.218c1.374,0.09,2.773,0.146,4.125,0.421 c1.226,0.25,2.374,0.735,3.467,1.337c7.377,4.06,11.346,12.952,10.206,21.189C42.715,32.878,40.096,36.813,36.188,39.489z"/><path fill="#c0e6ed" d="M26.955,16.253c-2.757-0.936-5.241-1.091-7.774,0.351s-4.335,4.345-4.487,7.436 s1.408,6.24,3.931,7.703c1.171,0.679,2.492,0.999,3.81,1.177c1.414,0.191,2.867,0.225,4.247-0.158 c3.422-0.951,5.987-4.697,5.828-8.513C32.352,20.433,30.305,17.391,26.955,16.253z"/><path fill="#010101" d="M27.088,15.771c-2.014-0.67-4.166-1.017-6.244-0.416c-1.893,0.548-3.525,1.749-4.702,3.317 c-2.365,3.15-2.612,7.558-0.456,10.885c1.08,1.666,2.65,2.834,4.549,3.412c2.083,0.633,4.552,0.868,6.662,0.251 c3.539-1.035,5.932-4.643,6.11-8.234C33.207,20.956,30.94,17.124,27.088,15.771z M27.784,31.788 c-1.728,0.913-3.772,0.888-5.656,0.585c-1.863-0.3-3.598-0.976-4.88-2.403c-2.346-2.614-2.66-6.555-1.008-9.602 c0.933-1.721,2.426-3.147,4.271-3.847c2.087-0.793,4.245-0.472,6.311,0.216c3.013,1.058,4.862,3.831,5.151,6.956 C32.27,26.9,30.683,30.256,27.784,31.788z"/><path fill="#4b7bb2" d="M22.546,18.596c-2.647,0-4.935,2.884-4.921,5.808c0.007,1.388,0.507,2.802,1.47,3.693 c0.763,0.705,1.743,1.04,2.695,1.358c1.691,0.565,3.56,1.122,5.174,0.328c1.825-0.897,2.713-3.347,2.496-5.541 C29.218,21.791,28.189,18.596,22.546,18.596z"/><path fill="#010101" d="M29.164,21.271c-1.271-2.453-4.047-3.158-6.617-3.176c-2.842,0.062-4.966,2.71-5.349,5.369 c-0.215,1.495,0.084,3.118,0.987,4.351c0.955,1.304,2.487,1.812,3.966,2.284c1.542,0.493,3.264,0.886,4.82,0.227 c1.264-0.535,2.112-1.669,2.584-2.927C30.271,25.484,30.108,23.095,29.164,21.271z M27.775,28.524 c-0.936,1.07-2.29,1.297-3.642,1.061c-1.328-0.232-2.844-0.673-4.013-1.356c-1.173-0.685-1.821-1.928-1.964-3.257 c-0.278-2.583,1.548-5.815,4.391-5.876c1.917,0.013,4.086,0.37,5.326,1.994c0.875,1.145,1.188,2.764,1.111,4.178 C28.92,26.421,28.547,27.642,27.775,28.524z"/><path fill="#010101" d="M23.6,16.048c2.981,0.01,5.961-0.018,8.942-0.044c1.443-0.012,2.887-0.024,4.33-0.029 c0.773-0.003,1.547-0.004,2.32-0.002c0.778,0.002,1.562-0.032,2.321,0.168c0.623,0.164,0.889-0.8,0.266-0.964 c-1.408-0.371-2.978-0.206-4.421-0.203c-1.526,0.004-3.051,0.015-4.577,0.028c-3.06,0.026-6.121,0.056-9.181,0.046 C22.956,15.046,22.956,16.046,23.6,16.048L23.6,16.048z"/><path fill="#010101" d="M31.418,27.699c-2.147,5.8-5.077,11.285-8.619,16.352c-0.37,0.529,0.497,1.029,0.863,0.505 c3.593-5.14,6.542-10.708,8.72-16.591C32.606,27.36,31.64,27.099,31.418,27.699L31.418,27.699z"/><path fill="#010101" d="M6.455,12.861c0.711,3.249,2.222,6.277,3.96,9.09c1.692,2.739,3.375,5.551,5.531,7.956 c0.43,0.48,1.136-0.229,0.707-0.707c-2.098-2.34-3.728-5.089-5.375-7.754c-1.697-2.745-3.165-5.681-3.859-8.851 C7.282,11.967,6.318,12.233,6.455,12.861L6.455,12.861z"/></svg>